<svg width="512" height="512" viewBox="0 0 180 180" fill="none" xmlns="http://www.w3.org/2000/svg">
  <rect width="180" height="180" rx="40" fill="#F2F4F7"/>
  <circle cx="78" cy="96" r="50" fill="#022A6B"/>
  <g fill="#AFC3EA">
    <path d="M49 61c11-6 24-7 34-2 2 8-3 13-9 17-6 3-9 9-16 10-8 0-14-9-14-17 0-3 2-6 5-8Z"/>
    <path d="M41 101c7-5 15-4 21 4 5 4 9 8 15 10 1 11-6 20-16 24-10 3-20-3-25-13-4-8-2-16 5-25Z"/>
    <path d="M84 79c9-6 18-8 28-8 13 1 23 8 29 19-3 3-8 4-12 5-7 2-9 8-13 12-5 1-11 0-17 0-8-2-14-9-18-15-2-5-1-10 3-13Z"/>
    <path d="M98 114c7-4 15-4 21 2 8 6 9 16 4 24-5 9-13 15-22 15-6-2-10-7-14-13-4-6-3-15 1-22 2-3 4-5 10-6Z"/>
  </g>
  <path d="M91 40 111 48 99 67 80 60Z" fill="#FFFFFF"/>
  <path d="M96 44 147 22l-21 52-14-18-20-12Z" fill="#FF6A1A"/>
  <path d="m127 33-18 18 7 4 11-22Z" fill="#D94F09"/>
  <path d="M80 60 111 48" stroke="#FFFFFF" stroke-width="5" stroke-linecap="round"/>
</svg>
